<?xml version="1.0" encoding="UTF-8" standalone="no"?>
<!-- Copyright 2017 mathsisfun.com -->
<svg xmlns="http://www.w3.org/2000/svg" width="207.5" height="207.5" version="1.1" style="stroke-width:1.52;">
<defs/>
<g transform="translate(-1568.36,-765.007)">
	<rect x="1569.1" y="765.8" width="206" height="206" style="fill:none; stroke:black; stroke-linecap:round;"/>
	<rect x="1569.1" y="765.8" width="103" height="103" style="fill:none; stroke:black; stroke-linecap:round;"/>
	<rect x="1672.3" y="765.8" width="51.4" height="51.4" style="fill:none; stroke:black; stroke-linecap:round;"/>
	<rect x="1723.9" y="765.8" width="25.6" height="25.6" style="fill:none; stroke:black; stroke-linecap:round;"/>
	<rect x="1749.7" y="765.8" width="12.7" height="12.7" style="fill:none; stroke:black; stroke-linecap:round;"/>
	<rect x="1569.1" y="765.8" width="205.9" height="103" style="fill:none; stroke:black; stroke-linecap:round;"/>
	<rect x="1672.3" y="765.8" width="102.7" height="51.4" style="fill:none; stroke:black; stroke-linecap:round;"/>
	<rect x="1723.9" y="765.8" width="51.1" height="25.6" style="fill:none; stroke:black; stroke-linecap:round;"/>
	<rect x="1749.7" y="765.8" width="25.2" height="12.7" style="fill:none; stroke:black; stroke-linecap:round;"/>
	<rect x="1762.4" y="765.8" width="6.2" height="6.2" style="fill:none; stroke:black; stroke-linecap:round;"/>
	<rect x="1762.4" y="765.8" width="12.5" height="6.2" style="fill:none; stroke:black; stroke-linecap:round;"/>
	<rect x="1768.7" y="765.8" width="3" height="3" style="fill:none; stroke:black; stroke-linecap:round;"/>
	<rect x="1768.7" y="765.8" width="6.4" height="3" style="fill:none; stroke:black; stroke-linecap:round;"/>
	<text x="1646" y="924.4" transform="scale(1.0046,0.995421)" style="font-family:Arial; font-size:30px; fill:#0000ff; stroke-linecap:round;">1</text>
	<text x="1664.7" y="950.2" transform="scale(1.0046,0.995421)" style="font-family:Arial; font-size:30px; fill:#0000ff; stroke-linecap:round;">2</text>
	<path style="fill:none; stroke:#0000ff; stroke-width:1.77; stroke-linecap:round;" d="m 1659.3,937.7 22.6,-28.8"/>
	<text x="1608.9" y="812.2" style="font-family:Arial; font-size:20px; fill:#0000ff; stroke-linecap:round;">1</text>
	<text x="1621.5" y="829.6" style="font-family:Arial; font-size:20px; fill:#0000ff; stroke-linecap:round;">4</text>
	<path style="fill:none; stroke:#0000ff; stroke-linecap:round;" d="m 1612.7,824.1 15.1,-19.4"/>
	<text x="1714.4" y="839.7" transform="scale(0.997576,1.00243)" style="font-family:Arial; font-size:18px; fill:#0000ff; stroke-linecap:round;">1</text>
	<text x="1725.1" y="854.4" transform="scale(0.997576,1.00243)" style="font-family:Arial; font-size:18px; fill:#0000ff; stroke-linecap:round;">8</text>
	<path style="fill:none; stroke:#0000ff; stroke-linecap:round;" d="m 1713.5,851.8 12.8,-16.6"/>
	<text x="1683.8" y="787.9" transform="scale(1.00012,0.99988)" style="font-family:Arial; font-size:16px; fill:#0000ff; stroke-linecap:round;">1</text>
	<text x="1693.3" y="804.1" transform="scale(1.00012,0.99988)" style="font-family:Arial; font-size:16px; fill:#0000ff; stroke-linecap:round;">16</text>
	<path style="fill:none; stroke:#0000ff; stroke-width:1.4; stroke-linecap:round;" d="m 1687.3,797.9 12.9,-16.6"/>
	<text x="1754.8" y="796.8" transform="scale(0.992595,1.00746)" style="font-family:Arial; font-size:12px; fill:#0000ff; stroke-linecap:round;">1</text>
	<text x="1763" y="808.1" transform="scale(0.992595,1.00746)" style="font-family:Arial; font-size:12px; fill:#0000ff; stroke-linecap:round;">32</text>
	<path style="fill:none; stroke:#0000ff; stroke-width:1.23; stroke-linecap:round;" d="m 1744.3,810.5 9.8,-12.8"/>
	<text x="1749.2" y="768.3" transform="scale(0.988074,1.01207)" style="font-family:Arial; font-size:10px; fill:#0000ff; stroke-linecap:round;">1</text>
	<text x="1755.9" y="777.6" transform="scale(0.988074,1.01207)" style="font-family:Arial; font-size:10px; fill:#0000ff; stroke-linecap:round;">64</text>
	<path style="fill:none; stroke:#0000ff; stroke-width:1.17; stroke-linecap:round;" d="m 1730.3,784 8,-10.6"/>
	<text x="1757.6" y="785" style="font-size:10.9px; font-style:italic; fill:#0000ff; stroke-width:0.55px;">...</text>
	<text x="1752.2" y="772.4" style="font-size:9.2px; font-style:italic; fill:#0000ff; stroke-width:0.46px;">...</text>
	<text x="1765.4" y="775" style="font-size:7.7px; font-style:italic; fill:#0000ff; stroke-width:0.39px;">...</text>
</g>
</svg>